<?xml version="1.0" standalone="no"?>
<!DOCTYPE svg PUBLIC "-//W3C//DTD SVG 20010904//EN"
 "http://www.w3.org/TR/2001/REC-SVG-20010904/DTD/svg10.dtd">
<svg version="1.0" xmlns="http://www.w3.org/2000/svg"
 width="169.000000pt" height="189.000000pt" viewBox="0 0 169.000000 189.000000"
 preserveAspectRatio="xMidYMid meet">

<g transform="translate(0.000000,189.000000) scale(0.100000,-0.100000)"
fill="#000000" stroke="none">
<path d="M20 1105 c0 -656 2 -745 15 -745 13 0 15 88 15 730 l0 730 625 0
c549 0 625 2 625 15 0 13 -78 15 -640 15 l-640 0 0 -745z"/>
<path d="M1637 1843 c-4 -3 -7 -408 -7 -900 0 -787 2 -893 15 -893 13 0 15
107 15 900 0 495 -4 900 -8 900 -5 0 -12 -3 -15 -7z"/>
<path d="M330 945 l0 -585 175 0 175 0 0 260 c0 224 -2 260 -15 260 -13 0 -15
-34 -15 -245 l0 -245 -145 0 -145 0 0 555 0 555 160 0 c136 0 160 2 160 15 0
13 -26 15 -175 15 l-175 0 0 -585z"/>
<path d="M970 1515 c0 -13 26 -15 175 -15 l175 0 0 -466 0 -466 -121 113
c-177 168 -219 203 -229 193 -8 -8 359 -364 375 -364 3 0 5 230 5 510 l0 510
-190 0 c-162 0 -190 -2 -190 -15z"/>
<path d="M1320 270 l0 -190 -625 0 c-549 0 -625 -2 -625 -15 0 -13 78 -15 640
-15 l640 0 0 205 c0 176 -2 205 -15 205 -13 0 -15 -28 -15 -190z"/>
</g>
</svg>
